<svg id="Group_6150" data-name="Group 6150" xmlns="http://www.w3.org/2000/svg" xmlns:xlink="http://www.w3.org/1999/xlink" width="945.449" height="352.875" viewBox="0 0 945.449 352.875">
  <defs>
    <clipPath id="clip-path">
      <rect id="Rectangle_1922" data-name="Rectangle 1922" width="945.448" height="352.874" fill="none"/>
    </clipPath>
  </defs>
  <path id="Path_20614" data-name="Path 20614" d="M0,0,.094,352.871H945.448V155.727L829.564,0Z" transform="translate(0 0.001)" fill="#192c67"/>
  <g id="Group_6092" data-name="Group 6092">
    <g id="Group_6091" data-name="Group 6091" clip-path="url(#clip-path)">
      <path id="Path_20615" data-name="Path 20615" d="M57.916,63.17h4.065v19.7H74.143v3.751H57.916Zm30.6,0h4.065V86.621H88.52Zm20.633,0h17.216v3.754H113.215v6.4h11.671v3.754H113.215v9.547h-4.061Zm31.6,0h17.156v3.687H144.815v6.1h11.6v3.721h-11.6v6.265h13.256v3.683H140.75Zm31.4,11.192h9.783v3.987h-9.783ZM197.712,63.17h10.311a9.255,9.255,0,0,1,6.677,2.342,7.167,7.167,0,0,1,1.918,5.062v.067c0,3.855-2.282,6.163-5.489,7.1l6.246,8.876h-4.826l-5.684-8.175h-5.092v8.175h-4.061ZM207.727,74.8c2.908,0,4.755-1.544,4.755-3.923v-.064c0-2.514-1.783-3.885-4.792-3.885h-5.916V74.8ZM232.07,63.17h17.156v3.687H236.135v6.1h11.6v3.721h-11.6v6.265h13.252v3.683H232.07ZM273.127,63H276.9l10.184,23.62h-4.3l-2.346-5.661H269.492l-2.379,5.661h-4.166Zm5.819,14.305-4-9.378-3.968,9.378ZM301.231,63.17h8.625c7.273,0,12.3,5.058,12.3,11.66V74.9c0,6.6-5.024,11.724-12.3,11.724h-8.625Zm4.065,3.754V82.87h4.56c4.86,0,8.033-3.316,8.033-7.906V74.9a7.643,7.643,0,0,0-8.033-7.973Zm37.112,10.45-9.191-14.2h4.83l6.444,10.352,6.542-10.352h4.661l-9.187,14.107v9.344h-4.1Zm46.606-14.2h17.22v3.754H393.079v6.4h11.667v3.754H393.079v9.547h-4.065Zm30.364,11.795V74.9a12.1,12.1,0,1,1,24.2-.067V74.9a12.1,12.1,0,0,1-24.2.067m19.933,0V74.9c0-4.56-3.275-8.31-7.868-8.31s-7.8,3.683-7.8,8.243V74.9c0,4.552,3.271,8.307,7.865,8.307s7.8-3.687,7.8-8.239m18.382,0V74.9a12.1,12.1,0,1,1,24.193-.067V74.9a12.1,12.1,0,0,1-24.193.067m19.929,0V74.9c0-4.56-3.275-8.31-7.868-8.31s-7.8,3.683-7.8,8.243V74.9c0,4.552,3.271,8.307,7.865,8.307s7.8-3.687,7.8-8.239M497.236,63.17h8.625c7.276,0,12.3,5.058,12.3,11.66V74.9c0,6.6-5.021,11.724-12.3,11.724h-8.625Zm4.065,3.754V82.87h4.56c4.86,0,8.033-3.316,8.033-7.906V74.9a7.643,7.643,0,0,0-8.033-7.973ZM531.5,83.2l2.447-2.945a10.648,10.648,0,0,0,7.3,3.046c2.514,0,4.1-1.206,4.1-2.949v-.067c0-1.675-.925-2.578-5.223-3.586-4.923-1.2-7.7-2.675-7.7-7v-.067c0-4.02,3.3-6.8,7.9-6.8a12.738,12.738,0,0,1,8.4,2.949L546.54,68.9a10.439,10.439,0,0,0-6.283-2.413c-2.379,0-3.766,1.24-3.766,2.78v.067c0,1.81,1.057,2.612,5.519,3.687,4.893,1.206,7.407,2.979,7.407,6.868v.067c0,4.388-3.406,7-8.269,7A14.137,14.137,0,0,1,531.5,83.2" transform="translate(159.082 172.402)" fill="#fff"/>
      <path id="Path_20616" data-name="Path 20616" d="M127.063,27.24h-44.2v98.3h28.086v-27.8h16.115c19.8,0,35.812-13.338,35.812-35.246s-16.01-35.25-35.812-35.25m0,43.253H110.948V54.483h16.115c4.211,0,7.726,2.949,7.726,8.007s-3.514,8-7.726,8" transform="translate(227.603 74.823)" fill="#fff"/>
      <path id="Path_20617" data-name="Path 20617" d="M140.99,27.63l-38.146,98.3h30.191l5.347-14.316h38.078l5.347,14.316H212l-38.146-98.3ZM147.1,88.268l10.319-27.636,10.322,27.636Z" transform="translate(282.489 75.894)" fill="#fff"/>
      <path id="Path_20618" data-name="Path 20618" d="M72.208,67.375C60.975,64.145,56.2,62.6,56.2,58.248c0-2.81,2.3-4.466,7.445-5.2,6.358-.9,11.51.813,17.235,4.44L99.7,37.974c-11.079-7.385-21.63-11.079-36.2-11.042-21.484.049-35.388,13.481-35.388,31.173,0,17.977,13.061,26.685,29.348,31.6,9.974,2.945,17.415,3.788,17.415,8.846,0,2.949-2.806,5.054-9.551,5.054-8.284,0-16.126-2.6-21.851-7.947L26.681,113.786c6.107,7.254,21.405,16.085,37.944,15.939,23.312-.2,38.337-11.233,38.337-31.454,0-20.5-15.306-26.4-30.753-30.9" transform="translate(73.286 73.976)" fill="#fff"/>
      <path id="Path_20619" data-name="Path 20619" d="M102.785,26.931c-29.071,0-52.1,22.331-52.1,51.4s23.031,51.4,52.1,51.4,52.1-22.327,52.1-51.4-23.031-51.4-52.1-51.4m0,75.273c-13.9,0-24.013-10.251-24.013-23.874S88.88,54.459,102.785,54.459s24.009,10.251,24.009,23.871S116.689,102.2,102.785,102.2" transform="translate(139.212 73.974)" fill="#fff"/>
      <path id="Path_20620" data-name="Path 20620" d="M212.678,102.2c-13.9,0-24.013-10.251-24.013-23.874s10.113-23.871,24.013-23.871a42.612,42.612,0,0,1,18.25,4.991A57.166,57.166,0,0,1,244.51,37.287c-10.667-8.074-21.386-10.356-31.833-10.356-29.067,0-52.1,22.331-52.1,51.4s23.031,51.4,52.1,51.4c10.2,0,23.061-2.934,32.286-9.888a57.236,57.236,0,0,1-14.032-22.608c-7.748,4.455-18.254,4.972-18.254,4.972" transform="translate(441.073 73.974)" fill="#fff"/>
      <path id="Path_20621" data-name="Path 20621" d="M230.835,27.648l-29.51.011a53.149,53.149,0,0,1,30.791,48.712,53.144,53.144,0,0,1-31.248,48.914l29.985.056,37.1-48.854Z" transform="translate(551.738 75.943)" fill="#fff"/>
      <path id="Path_20622" data-name="Path 20622" d="M224.07,27.857l-32.042-.011L165.685,73.459V27.531H135.4v98.3h30.285V80.383L190.69,126.5l33.38-.734-27.865-48.24.922.019Z" transform="translate(371.911 75.621)" fill="#fff"/>
      <path id="Path_20623" data-name="Path 20623" d="M213.346,33.894c-15.178,0-26.212,11.192-26.212,26.062s11.034,26.059,26.212,26.059,26.216-11.192,26.216-26.059-11.038-26.062-26.216-26.062" transform="translate(514.014 93.1)" fill="#d71920"/>
    </g>
  </g>
</svg>
